# xmcd CD Database Entry
#
# Track frame offsets:
# 150
# 61147
# 137675
# 205509
#
# Disc length: 3351 seconds
#
# Revision: 1
# Processed by: cddbd v1.4PL0 Copyright (c) Steve Scherf et al.
# Submitted via: tcd 2.0b
#
DISCID=2e0d1504
DTITLE=Rainbow - Live in Germany 1976 disk 2
DYEAR=1900
DGENRE=
TTITLE0=Man on the Silver Mountain
TTITLE1=Stargazer
TTITLE2=Still I'm Sad
TTITLE3=Do You Close Your Eyes
EXTD=
EXTT0=
EXTT1=
EXTT2=
EXTT3=
PLAYORDER=
